<?xml version="1.0" encoding="UTF-8" standalone="no"?>
<!-- Created with Inkscape (http://www.inkscape.org/) -->

<svg
   xmlns:dc="http://purl.org/dc/elements/1.1/"
   xmlns:cc="http://creativecommons.org/ns#"
   xmlns:rdf="http://www.w3.org/1999/02/22-rdf-syntax-ns#"
   xmlns:svg="http://www.w3.org/2000/svg"
   xmlns="http://www.w3.org/2000/svg"
   xmlns:xlink="http://www.w3.org/1999/xlink"
   xmlns:sodipodi="http://sodipodi.sourceforge.net/DTD/sodipodi-0.dtd"
   xmlns:inkscape="http://www.inkscape.org/namespaces/inkscape"
   width="744.09448"
   height="1052.3622"
   id="svg2"
   version="1.1"
   inkscape:version="0.48.5 r10040"
   sodipodi:docname="body.svg">
  <defs
     id="defs4">
    <clipPath
       id="clipPath4064"
       clipPathUnits="userSpaceOnUse">
      <path
         id="path4066"
         d="m 0,4.75 2850,0 0,11140 -2850,0 0,-11140 z" />
    </clipPath>
    <clipPath
       id="clipPath4064-9"
       clipPathUnits="userSpaceOnUse">
      <path
         id="path4066-3"
         d="m 0,4.75 2850,0 0,11140 -2850,0 0,-11140 z" />
    </clipPath>
  </defs>
  <sodipodi:namedview
     id="base"
     pagecolor="#ffffff"
     bordercolor="#666666"
     borderopacity="1.0"
     inkscape:pageopacity="0.0"
     inkscape:pageshadow="2"
     inkscape:zoom="0.30107764"
     inkscape:cx="-264.09688"
     inkscape:cy="479.33924"
     inkscape:document-units="mm"
     inkscape:current-layer="layer1"
     showgrid="true"
     units="mm"
     inkscape:window-width="1228"
     inkscape:window-height="755"
     inkscape:window-x="52"
     inkscape:window-y="0"
     inkscape:window-maximized="1"
     inkscape:snap-grids="true"
     inkscape:snap-to-guides="true">
    <inkscape:grid
       type="xygrid"
       id="grid3116"
       empspacing="5"
       visible="true"
       enabled="true"
       snapvisiblegridlinesonly="true"
       units="mm"
       spacingx="1mm"
       spacingy="1mm" />
    <inkscape:grid
       type="xygrid"
       id="grid3209"
       empspacing="5"
       visible="true"
       enabled="false"
       snapvisiblegridlinesonly="false"
       units="mm"
       spacingx="0.5mm"
       spacingy="0.5mm"
       dotted="true" />
  </sodipodi:namedview>
  <metadata
     id="metadata7">
    <rdf:RDF>
      <cc:Work
         rdf:about="">
        <dc:format>image/svg+xml</dc:format>
        <dc:type
           rdf:resource="http://purl.org/dc/dcmitype/StillImage" />
        <dc:title />
      </cc:Work>
    </rdf:RDF>
  </metadata>
  <g
     inkscape:label="Layer 1"
     inkscape:groupmode="layer"
     id="layer1"
     transform="translate(0,-2.5390623e-6)">
    <g
       id="g4900"
       transform="translate(-12.401578,-5.3149974)">
      <path
         sodipodi:nodetypes="ccccccccccccccccccccccccccccccccccccc"
         inkscape:connector-curvature="0"
         id="rect3568"
         d="m -306.49606,850.39367 10.62992,0 0,-5.3149 97.44094,0 0,-10.63 106.299213,0 0,10.63 93.8976296,-10e-5 10e-6,5.315 10.6299304,0 0,-5.3149 17.71653,0 0,35.433 10.62992,0 0,35.4331 -10.62992,0 0,35.4331 -17.71653,0 0,-5.315 -10.6299304,0 0,5.315 -95.6692896,0 0,10.6299 -106.299213,0 0,-10.6299 -95.66929,0 0,-5.315 -10.62992,0 0,5.315 -17.71654,0 0,-35.4331 -10.62992,0 0,-35.4331 10.62992,0 0,-35.4331 17.71654,10e-5 z"
         style="fill:none;stroke:#000000;stroke-width:1" />
      <path
         sodipodi:type="arc"
         style="fill:none;stroke:#000000;stroke-width:1"
         id="path3573"
         sodipodi:cx="124.01575"
         sodipodi:cy="1052.3622"
         sodipodi:rx="28.346457"
         sodipodi:ry="28.346457"
         d="m 152.3622,1052.3622 c 0,15.6553 -12.69114,28.3464 -28.34645,28.3464 -15.65532,0 -28.346459,-12.6911 -28.346459,-28.3464 0,-15.6553 12.691139,-28.3465 28.346459,-28.3465 15.65531,0 28.34645,12.6912 28.34645,28.3465 z"
         transform="translate(-271.06299,-154.13382)" />
    </g>
    <g
       id="g3299"
       transform="matrix(-1,0,0,1,-1031.0271,248.0315)"
       style="stroke-width:1">
      <path
         id="path3044"
         d="m 239.91957,536.88548 c 2.9145,0 5.2772,2.36292 5.2772,5.27773 0,2.91481 -2.3627,5.27772 -5.2772,5.27772 -2.9146,0 -5.2773,-2.36291 -5.2773,-5.27772 0,-2.91481 2.3627,-5.27773 5.2773,-5.27773 z"
         style="fill:none;stroke:#000000;stroke-width:1;stroke-miterlimit:4"
         inkscape:connector-curvature="0" />
      <path
         id="path3046"
         d="m 165.86443,366.80675 c 2.91455,0 5.27726,2.36292 5.27726,5.27773 0,2.9148 -2.36271,5.27772 -5.27726,5.27772 -2.91456,0 -5.27727,-2.36292 -5.27727,-5.27772 0,-2.91481 2.36271,-5.27773 5.27727,-5.27773 z"
         style="fill:none;stroke:#000000;stroke-width:1;stroke-miterlimit:4"
         inkscape:connector-curvature="0" />
      <path
         id="path3048"
         d="m 67.006157,366.80675 c 2.91455,0 5.27726,2.36292 5.27726,5.27773 0,2.9148 -2.36271,5.27772 -5.27726,5.27772 -2.91456,0 -5.27727,-2.36292 -5.27727,-5.27772 0,-2.91481 2.36271,-5.27773 5.27727,-5.27773 z"
         style="fill:none;stroke:#000000;stroke-width:1;stroke-miterlimit:4"
         inkscape:connector-curvature="0" />
      <path
         id="path3050"
         d="m 52.832927,536.88548 c 2.91455,0 5.27726,2.36292 5.27726,5.27773 0,2.91481 -2.36271,5.27772 -5.27726,5.27772 -2.91456,0 -5.27727,-2.36291 -5.27727,-5.27772 0,-2.91481 2.36271,-5.27773 5.27727,-5.27773 z"
         style="fill:none;stroke:#000000;stroke-width:1;stroke-miterlimit:4"
         inkscape:connector-curvature="0" />
      <path
         id="path3052"
         d="m 48.935287,182.55478 c 2.91455,0 5.27726,2.36292 5.27726,5.27773 0,2.9148 -2.36271,5.27772 -5.27726,5.27772 -2.91456,0 -5.27727,-2.36292 -5.27727,-5.27772 0,-2.91481 2.36271,-5.27773 5.27727,-5.27773 z"
         style="fill:none;stroke:#000000;stroke-width:1;stroke-miterlimit:4"
         inkscape:connector-curvature="0" />
      <path
         id="path3054"
         d="m 220.07703,182.55478 c 2.91455,0 5.27726,2.36292 5.27726,5.27773 0,2.9148 -2.36271,5.27772 -5.27726,5.27772 -2.91456,0 -5.27727,-2.36292 -5.27727,-5.27772 0,-2.91481 2.36271,-5.27773 5.27727,-5.27773 z"
         style="fill:none;stroke:#000000;stroke-width:1;stroke-miterlimit:4"
         inkscape:connector-curvature="0" />
    </g>
    <g
       id="use3261"
       transform="translate(-359.92059,1158.6615)"
       style="stroke-width:1">
      <path
         style="fill:none;stroke:#000000;stroke-width:1;stroke-miterlimit:4"
         d="m -301.1811,-258.6614 35.43307,-4e-5 0,-10.62984 53.1496,-4e-5 0,10.62988 17.70201,0.0239 17.73107,-0.0239 0,354.330672 -35.43308,1e-6 0,10.629917 -53.1496,0 0,-10.629917 -35.43307,-1e-6 z"
         id="path3265"
         inkscape:connector-curvature="0"
         sodipodi:nodetypes="cccccccccccccc" />
      <path
         inkscape:connector-curvature="0"
         style="fill:none;stroke:#000000;stroke-width:1;stroke-miterlimit:4"
         d="m -207.00856,-81.496083 c 0,17.764073 -14.40061,32.164701 -32.16466,32.164701 -17.76409,0 -32.1647,-14.400628 -32.1647,-32.164701 0,-17.764072 14.40061,-32.164697 32.1647,-32.164697 17.76405,0 32.16466,14.400625 32.16466,32.164697 z"
         id="path3267" />
    </g>
    <g
       id="g3408"
       transform="translate(-53.149602,230.31496)"
       style="stroke-width:1">
      <path
         id="rect3279"
         d="m -832.67717,131.10234 354.33071,0.0118 c 30.90611,0.001 55.78721,23.70473 55.78721,53.14961 l 0,354.3189 c 0,29.44488 -24.8811,53.15064 -55.78721,53.14961 l -354.33071,-0.0118 c -30.90611,-10e-4 -55.78721,-23.70473 -55.78721,-53.14961 l 0,-354.3189 c 0,-29.44488 24.8811,-53.15064 55.78721,-53.14961 z"
         style="fill:none;stroke:#000000;stroke-width:1;stroke-miterlimit:4"
         inkscape:connector-curvature="0"
         sodipodi:nodetypes="sssssssss" />
      <path
         id="rect3284"
         d="m -478.34647,219.68501 10.62992,0 0,194.8819 -10.62992,0 z"
         style="fill:none;stroke:#000000;stroke-width:1;stroke-miterlimit:4"
         transform="translate(0,2.5390623e-6)"
         inkscape:connector-curvature="0" />
      <path
         id="path3286"
         d="m -467.71653,455.31494 c 0,2.93537 -2.37959,5.31496 -5.31496,5.31496 -2.93538,0 -5.31496,-2.37959 -5.31496,-5.31496 0,-2.93537 2.37958,-5.31496 5.31496,-5.31496 2.93537,0 5.31496,2.37959 5.31496,5.31496 z"
         style="fill:none;stroke:#000000;stroke-width:1;stroke-miterlimit:4"
         transform="translate(0,2.5390623e-6)"
         inkscape:connector-curvature="0" />
      <path
         id="path3288"
         d="m -467.71653,178.93698 c 0,2.93537 -2.37959,5.31496 -5.31496,5.31496 -2.93538,0 -5.31496,-2.37959 -5.31496,-5.31496 0,-2.93537 2.37958,-5.31496 5.31496,-5.31496 2.93537,0 5.31496,2.37959 5.31496,5.31496 z"
         style="fill:none;stroke:#000000;stroke-width:1;stroke-miterlimit:4"
         transform="translate(0,2.5390623e-6)"
         inkscape:connector-curvature="0" />
      <path
         inkscape:connector-curvature="0"
         style="fill:none;stroke:#000000;stroke-width:1;stroke-miterlimit:4"
         d="m -843.30709,219.68502 10.62992,0 0,194.8819 -10.62992,0 z"
         id="path3293" />
      <path
         inkscape:connector-curvature="0"
         style="fill:none;stroke:#000000;stroke-width:1;stroke-miterlimit:4"
         d="m -832.67715,455.31495 c 0,2.93537 -2.37959,5.31496 -5.31496,5.31496 -2.93538,0 -5.31496,-2.37959 -5.31496,-5.31496 0,-2.93537 2.37958,-5.31496 5.31496,-5.31496 2.93537,0 5.31496,2.37959 5.31496,5.31496 z"
         id="path3295" />
      <path
         inkscape:connector-curvature="0"
         style="fill:none;stroke:#000000;stroke-width:1;stroke-miterlimit:4"
         d="m -832.67715,178.93699 c 0,2.93537 -2.37959,5.31496 -5.31496,5.31496 -2.93538,0 -5.31496,-2.37959 -5.31496,-5.31496 0,-2.93537 2.37958,-5.31496 5.31496,-5.31496 2.93537,0 5.31496,2.37959 5.31496,5.31496 z"
         id="path3297" />
    </g>
    <use
       x="0"
       y="0"
       xlink:href="#g3963"
       id="use3968"
       transform="translate(377.36221,-5.3150266)"
       width="744.09448"
       height="1052.3622" />
    <use
       x="0"
       y="0"
       xlink:href="#rect3568"
       id="use3970"
       transform="translate(377.36221,-5.3149974)"
       width="744.09448"
       height="1052.3622" />
    <g
       id="g3997">
      <g
         style="stroke-width:1"
         transform="matrix(0,-1,1,0,-928.35202,486.14131)"
         id="g3378">
        <path
           inkscape:connector-curvature="0"
           style="fill:none;stroke:#000000;stroke-width:1"
           d="m -166.62755,593.50382 c 0,2.8845 -2.33835,5.22285 -5.22284,5.22285 -2.88449,0 -5.22283,-2.33835 -5.22283,-5.22285 0,-2.88448 2.33834,-5.22281 5.22283,-5.22281 2.88449,0 5.22284,2.33834 5.22284,5.22281 z"
           id="path3537" />
        <path
           inkscape:connector-curvature="0"
           style="fill:none;stroke:#000000;stroke-width:1"
           d="m -283.55668,593.50382 c 0,2.8845 -2.33834,5.22285 -5.22284,5.22285 -2.88449,0 -5.22283,-2.33835 -5.22283,-5.22285 0,-2.88448 2.33834,-5.22281 5.22283,-5.22281 2.8845,0 5.22284,2.33834 5.22284,5.22281 z"
           id="path3539" />
        <path
           inkscape:connector-curvature="0"
           style="fill:none;stroke:#000000;stroke-width:1"
           d="m -166.62755,838.08419 c 0,2.8845 -2.33835,5.22284 -5.22284,5.22284 -2.88449,0 -5.22284,-2.33834 -5.22284,-5.22284 0,-2.88448 2.33835,-5.22282 5.22284,-5.22282 2.88449,0 5.22284,2.33834 5.22284,5.22282 z"
           id="path3541" />
        <path
           inkscape:connector-curvature="0"
           style="fill:none;stroke:#000000;stroke-width:1"
           d="m -283.55668,838.08419 c 0,2.8845 -2.33834,5.22284 -5.22284,5.22284 -2.88449,0 -5.22283,-2.33834 -5.22283,-5.22284 0,-2.88448 2.33834,-5.22282 5.22283,-5.22282 2.8845,0 5.22284,2.33834 5.22284,5.22282 z"
           id="path3543" />
        <path
           style="fill:none;stroke:#000000;stroke-width:1"
           d="m -177.16535,669.685 10.62992,0 0,92.126 -10.62992,0 z"
           id="rect3545"
           inkscape:connector-curvature="0"
           sodipodi:nodetypes="ccccc" />
        <path
           style="fill:none;stroke:#000000;stroke-width:1"
           d="m -294.09448,669.685 10.62992,0 0,92.126 -10.62992,0 z"
           id="rect3547"
           inkscape:connector-curvature="0"
           sodipodi:nodetypes="ccccc" />
        <path
           inkscape:connector-curvature="0"
           style="fill:none;stroke:#000000;stroke-width:1"
           d="m -248.03149,588.18896 35.43307,0 0,10.62992 -35.43307,0 z"
           id="rect3562" />
        <path
           inkscape:connector-curvature="0"
           style="fill:none;stroke:#000000;stroke-width:1"
           d="m -248.03149,832.6771 35.43307,0 0,10.6299 -35.43307,0 z"
           id="rect3564" />
      </g>
      <g
         transform="translate(28.346461,248.0315)"
         id="g3978">
        <path
           style="fill:none;stroke:#000000;stroke-width:1;stroke-miterlimit:4"
           d="m -265.74804,219.68502 53.14961,-1e-5 0,0 0,10.55544 0,0 -53.14961,1e-5 0,0 0,-10.55544 z"
           id="rect3273"
           inkscape:connector-curvature="0"
           sodipodi:nodetypes="ccccccccc" />
        <path
           style="fill:none;stroke:#000000;stroke-width:1;stroke-miterlimit:4"
           d="m -265.74804,297.71224 53.14961,0 0,0 0,10.55545 0,0 -53.14961,0 0,0 0,-10.55545 z"
           id="rect3277"
           inkscape:connector-curvature="0"
           sodipodi:nodetypes="ccccccccc" />
      </g>
      <g
         id="g3974">
        <path
           style="fill:none;stroke:#000000;stroke-width:1"
           d="m -212.59843,804.33069 -177.16535,0 c 0,0 -17.25353,0.463 -26.5748,-8.85827 -9.32127,-9.32127 -8.85827,-26.5748 -8.85827,-26.5748 l 10e-6,-53.14961 0,-24.80315 17.71653,0 0,4.42914 10.62992,0 0,-4.42914 7.08662,0 0,-10.62992 -7.08662,0 0,-4.42913 -10.62992,0 0,4.42913 -17.71653,0 0,-35.43307 -10.62993,0 0,-194.88189 10.62993,0 0,-35.43307 17.71653,0 0,4.42913 10.62992,0 0,-4.42913 7.08662,0 0,-10.62992 -7.08662,0 0,-4.42914 -10.62992,0 0,4.42914 -17.71653,0 -10e-6,-24.80315 c 0,0 -0.2875,-6.79912 5.31496,-12.40158 3.54331,-3.5433 12.40158,-5.31496 12.40158,-5.31496 l 194.88189,0"
           id="rect3535"
           inkscape:connector-curvature="0"
           sodipodi:nodetypes="cczcccccccccccccccccccccccccccccccscc" />
        <use
           x="0"
           y="0"
           xlink:href="#rect3535"
           id="use3972"
           transform="matrix(-1,0,0,1,-425.19686,-9.0674234e-7)"
           width="744.09448"
           height="1052.3622" />
      </g>
    </g>
    <use
       x="0"
       y="0"
       xlink:href="#use3261"
       id="use3987"
       transform="translate(147.32217,4.0086614e-5)"
       width="744.09448"
       height="1052.3622" />
    <use
       x="0"
       y="0"
       xlink:href="#g3408"
       id="use3993"
       transform="translate(-478.34646,3.2664859e-6)"
       width="744.09448"
       height="1052.3622" />
    <use
       x="0"
       y="0"
       xlink:href="#g3997"
       id="use4014"
       transform="translate(460.62992,-1.7728842e-6)"
       width="744.09448"
       height="1052.3622" />
    <g
       transform="matrix(1.25,0,0,-1.25,-1373.3937,1223.882)"
       inkscape:label="ink_ext_XXXXXX"
       id="g4056">
      <path
         d="m 226.66973,539.307 c 1.558,0 2.824,1.266 2.824,2.828 0,1.559 -1.266,2.824 -2.824,2.824 -1.563,0 -2.829,-1.265 -2.829,-2.824 0,-1.562 1.266,-2.828 2.829,-2.828 z"
         style="fill:none;stroke:#000000;stroke-width:0.143731;stroke-linecap:butt;stroke-linejoin:miter;stroke-miterlimit:2.61313009;stroke-opacity:1;stroke-dasharray:none"
         id="path4080"
         inkscape:connector-curvature="0" />
      <path
         d="m 226.66973,593.166 c 1.558,0 2.824,1.266 2.824,2.825 0,1.562 -1.266,2.828 -2.824,2.828 -1.563,0 -2.829,-1.266 -2.829,-2.828 0,-1.559 1.266,-2.825 2.829,-2.825 z"
         style="fill:none;stroke:#000000;stroke-width:0.143731;stroke-linecap:butt;stroke-linejoin:miter;stroke-miterlimit:2.61313009;stroke-opacity:1;stroke-dasharray:none"
         id="path4082"
         inkscape:connector-curvature="0" />
      <path
         d="m 70.46263,539.307 c 1.5582,0 2.8242,1.266 2.8242,2.828 0,1.559 -1.266,2.824 -2.8242,2.824 -1.5629,0 -2.8289,-1.265 -2.8289,-2.824 0,-1.562 1.266,-2.828 2.8289,-2.828 z"
         style="fill:none;stroke:#000000;stroke-width:0.143731;stroke-linecap:butt;stroke-linejoin:miter;stroke-miterlimit:2.61313009;stroke-opacity:1;stroke-dasharray:none"
         id="path4084"
         inkscape:connector-curvature="0" />
      <path
         d="m 70.46263,593.166 c 1.5582,0 2.8242,1.266 2.8242,2.825 0,1.562 -1.266,2.828 -2.8242,2.828 -1.5629,0 -2.8289,-1.266 -2.8289,-2.828 0,-1.559 1.266,-2.825 2.8289,-2.825 z"
         style="fill:none;stroke:#000000;stroke-width:0.143731;stroke-linecap:butt;stroke-linejoin:miter;stroke-miterlimit:2.61313009;stroke-opacity:1;stroke-dasharray:none"
         id="path4086"
         inkscape:connector-curvature="0" />
      <path
         d="m 74.91973,604.905 148.496,0 c 6.304,0 8.394,-5.528 8.394,-7.11 l 0,-54.953 c 0,-2.519 -1.777,-8.047 -8.394,-8.047 l -148.496,0 c -4.9692,0 -9.0321,2.84 -9.0321,6.313 l 0,57.484 c 0,3.473 4.0629,6.313 9.0321,6.313 z"
         style="fill:none;stroke:#ed1c24;stroke-width:0.120809;stroke-linecap:butt;stroke-linejoin:miter;stroke-miterlimit:2.61313009;stroke-opacity:1;stroke-dasharray:none"
         id="path4088"
         inkscape:connector-curvature="0" />
      <path
         d="m 114.29473,572.147 0,-0.922 c -0.36,0.172 -0.7,0.301 -1.02,0.383 -0.316,0.086 -0.625,0.129 -0.922,0.129 -0.515,0 -0.9139,-0.102 -1.1952,-0.301 -0.2769,-0.199 -0.4179,-0.484 -0.4179,-0.852 0,-0.312 0.0941,-0.547 0.2769,-0.703 0.1883,-0.156 0.5391,-0.285 1.0592,-0.383 l 0.57,-0.117 c 0.707,-0.133 1.227,-0.371 1.563,-0.711 0.336,-0.336 0.507,-0.789 0.507,-1.359 0,-0.68 -0.23,-1.191 -0.687,-1.543 -0.453,-0.348 -1.117,-0.523 -1.996,-0.523 -0.332,0 -0.6841,0.035 -1.0591,0.113 -0.3707,0.074 -0.7579,0.183 -1.1559,0.332 l 0,0.973 c 0.3828,-0.215 0.7578,-0.376 1.1289,-0.485 0.3672,-0.109 0.7301,-0.164 1.0861,-0.164 0.543,0 0.957,0.106 1.254,0.316 0.293,0.215 0.437,0.516 0.437,0.911 0,0.343 -0.105,0.613 -0.316,0.804 -0.211,0.196 -0.555,0.34 -1.035,0.438 l -0.578,0.113 c -0.7071,0.141 -1.2192,0.359 -1.5321,0.66 -0.316,0.301 -0.4758,0.719 -0.4758,1.25 0,0.621 0.218,1.11 0.652,1.465 0.4379,0.356 1.0391,0.535 1.8049,0.535 0.328,0 0.664,-0.031 1.004,-0.09 0.34,-0.058 0.687,-0.148 1.047,-0.269"
         style="fill:none;stroke:#ed1c24;stroke-width:0.14173201;stroke-linecap:butt;stroke-linejoin:miter;stroke-miterlimit:4;stroke-opacity:1;stroke-dasharray:none"
         id="path4090"
         inkscape:connector-curvature="0" />
      <path
         d="m 120.64573,568.221 0,-0.422 -3.969,0 c 0.039,-0.594 0.219,-1.047 0.536,-1.359 0.324,-0.309 0.769,-0.465 1.339,-0.465 0.332,0 0.653,0.039 0.961,0.121 0.313,0.082 0.625,0.203 0.93,0.367 l 0,-0.816 c -0.309,-0.133 -0.625,-0.231 -0.953,-0.301 -0.324,-0.066 -0.652,-0.101 -0.988,-0.101 -0.836,0 -1.5,0.242 -1.993,0.73 -0.488,0.488 -0.73,1.148 -0.73,1.977 0,0.859 0.23,1.543 0.695,2.046 0.465,0.504 1.09,0.758 1.879,0.758 0.707,0 1.262,-0.226 1.672,-0.683 0.414,-0.453 0.621,-1.071 0.621,-1.852 m -0.863,0.254 c -0.008,0.469 -0.141,0.848 -0.399,1.129 -0.257,0.281 -0.597,0.422 -1.023,0.422 -0.48,0 -0.867,-0.137 -1.156,-0.41 -0.289,-0.27 -0.453,-0.653 -0.496,-1.149 l 3.074,0.008"
         style="fill:none;stroke:#ed1c24;stroke-width:0.14173201;stroke-linecap:butt;stroke-linejoin:miter;stroke-miterlimit:4;stroke-opacity:1;stroke-dasharray:none"
         id="path4092"
         inkscape:connector-curvature="0" />
      <path
         d="m 125.10273,569.823 c -0.098,0.058 -0.203,0.097 -0.32,0.121 -0.113,0.031 -0.238,0.043 -0.375,0.043 -0.488,0 -0.863,-0.16 -1.125,-0.477 -0.258,-0.316 -0.387,-0.769 -0.387,-1.363 l 0,-2.766 -0.867,0 0,5.25 0.867,0 0,-0.816 c 0.18,0.316 0.414,0.555 0.707,0.707 0.289,0.156 0.645,0.234 1.059,0.234 0.058,0 0.125,-0.004 0.195,-0.015 0.074,-0.004 0.152,-0.016 0.242,-0.032 l 0.004,-0.886"
         style="fill:none;stroke:#ed1c24;stroke-width:0.14173201;stroke-linecap:butt;stroke-linejoin:miter;stroke-miterlimit:4;stroke-opacity:1;stroke-dasharray:none"
         id="path4094"
         inkscape:connector-curvature="0" />
      <path
         d="m 125.39573,570.631 0.914,0 1.641,-4.406 1.64,4.406 0.914,0 -1.968,-5.25 -1.172,0 -1.969,5.25"
         style="fill:none;stroke:#ed1c24;stroke-width:0.14173201;stroke-linecap:butt;stroke-linejoin:miter;stroke-miterlimit:4;stroke-opacity:1;stroke-dasharray:none"
         id="path4096"
         inkscape:connector-curvature="0" />
      <path
         d="m 133.73173,570.026 c -0.461,0 -0.828,-0.184 -1.098,-0.543 -0.269,-0.36 -0.402,-0.856 -0.402,-1.485 0,-0.625 0.133,-1.121 0.399,-1.484 0.269,-0.359 0.636,-0.539 1.101,-0.539 0.461,0 0.824,0.18 1.094,0.543 0.265,0.363 0.402,0.855 0.402,1.48 0,0.625 -0.137,1.118 -0.402,1.477 -0.27,0.367 -0.633,0.551 -1.094,0.551 m 0,0.73 c 0.75,0 1.34,-0.242 1.766,-0.73 0.429,-0.489 0.644,-1.164 0.644,-2.028 0,-0.859 -0.215,-1.531 -0.644,-2.023 -0.426,-0.488 -1.016,-0.73 -1.766,-0.73 -0.754,0 -1.344,0.242 -1.773,0.73 -0.422,0.492 -0.637,1.164 -0.637,2.023 0,0.864 0.215,1.539 0.637,2.028 0.429,0.488 1.019,0.73 1.773,0.73"
         style="fill:none;stroke:#ed1c24;stroke-width:0.14173201;stroke-linecap:butt;stroke-linejoin:miter;stroke-miterlimit:4;stroke-opacity:1;stroke-dasharray:none"
         id="path4098"
         inkscape:connector-curvature="0" />
      <path
         d="m 145.89973,571.838 0,-0.996 c -0.316,0.297 -0.66,0.516 -1.019,0.664 -0.36,0.149 -0.743,0.219 -1.149,0.219 -0.801,0 -1.414,-0.242 -1.84,-0.734 -0.426,-0.489 -0.637,-1.196 -0.637,-2.118 0,-0.921 0.211,-1.628 0.637,-2.121 0.426,-0.488 1.039,-0.73 1.84,-0.73 0.406,0 0.789,0.074 1.149,0.219 0.359,0.148 0.703,0.371 1.019,0.668 l 0,-0.989 c -0.332,-0.226 -0.684,-0.394 -1.055,-0.507 -0.367,-0.114 -0.757,-0.168 -1.172,-0.168 -1.058,0 -1.894,0.324 -2.503,0.968 -0.61,0.653 -0.915,1.535 -0.915,2.66 0,1.125 0.305,2.008 0.915,2.657 0.609,0.648 1.445,0.976 2.503,0.976 0.418,0 0.813,-0.058 1.184,-0.172 0.371,-0.109 0.719,-0.273 1.043,-0.496"
         style="fill:none;stroke:#ed1c24;stroke-width:0.14173201;stroke-linecap:butt;stroke-linejoin:miter;stroke-miterlimit:4;stroke-opacity:1;stroke-dasharray:none"
         id="path4100"
         inkscape:connector-curvature="0" />
      <path
         d="m 149.36873,570.026 c -0.461,0 -0.828,-0.184 -1.098,-0.543 -0.266,-0.36 -0.402,-0.856 -0.402,-1.485 0,-0.625 0.133,-1.121 0.398,-1.484 0.27,-0.359 0.637,-0.539 1.102,-0.539 0.461,0 0.824,0.18 1.094,0.543 0.269,0.363 0.402,0.855 0.402,1.48 0,0.625 -0.133,1.118 -0.402,1.477 -0.27,0.367 -0.633,0.551 -1.094,0.551 m 0,0.73 c 0.75,0 1.34,-0.242 1.769,-0.73 0.426,-0.489 0.641,-1.164 0.641,-2.028 0,-0.859 -0.215,-1.531 -0.641,-2.023 -0.429,-0.488 -1.019,-0.73 -1.769,-0.73 -0.754,0 -1.344,0.242 -1.77,0.73 -0.426,0.492 -0.64,1.164 -0.64,2.023 0,0.864 0.214,1.539 0.64,2.028 0.426,0.488 1.016,0.73 1.77,0.73"
         style="fill:none;stroke:#ed1c24;stroke-width:0.14173201;stroke-linecap:butt;stroke-linejoin:miter;stroke-miterlimit:4;stroke-opacity:1;stroke-dasharray:none"
         id="path4102"
         inkscape:connector-curvature="0" />
      <path
         d="m 157.56773,568.549 0,-3.168 -0.863,0 0,3.141 c 0,0.496 -0.098,0.867 -0.289,1.113 -0.196,0.246 -0.485,0.371 -0.871,0.371 -0.469,0 -0.836,-0.148 -1.102,-0.445 -0.27,-0.297 -0.406,-0.703 -0.406,-1.215 l 0,-2.965 -0.867,0 0,5.25 0.867,0 0,-0.816 c 0.207,0.316 0.449,0.551 0.726,0.707 0.282,0.156 0.606,0.234 0.973,0.234 0.602,0 1.059,-0.187 1.367,-0.562 0.309,-0.371 0.465,-0.922 0.465,-1.645"
         style="fill:none;stroke:#ed1c24;stroke-width:0.14173201;stroke-linecap:butt;stroke-linejoin:miter;stroke-miterlimit:4;stroke-opacity:1;stroke-dasharray:none"
         id="path4104"
         inkscape:connector-curvature="0" />
      <path
         d="m 160.14973,572.12 0,-1.489 1.777,0 0,-0.672 -1.777,0 0,-2.851 c 0,-0.426 0.059,-0.703 0.176,-0.824 0.117,-0.121 0.355,-0.184 0.715,-0.184 l 0.886,0 0,-0.719 -0.886,0 c -0.664,0 -1.125,0.121 -1.379,0.367 -0.25,0.25 -0.379,0.704 -0.379,1.36 l 0,2.851 -0.633,0 0,0.672 0.633,0 0,1.489 0.867,0"
         style="fill:none;stroke:#ed1c24;stroke-width:0.14173201;stroke-linecap:butt;stroke-linejoin:miter;stroke-miterlimit:4;stroke-opacity:1;stroke-dasharray:none"
         id="path4106"
         inkscape:connector-curvature="0" />
      <path
         d="m 166.10673,569.823 c -0.094,0.058 -0.203,0.097 -0.316,0.121 -0.114,0.031 -0.239,0.043 -0.375,0.043 -0.489,0 -0.864,-0.16 -1.125,-0.477 -0.262,-0.316 -0.391,-0.769 -0.391,-1.363 l 0,-2.766 -0.867,0 0,5.25 0.867,0 0,-0.816 c 0.184,0.316 0.418,0.555 0.707,0.707 0.293,0.156 0.645,0.234 1.063,0.234 0.058,0 0.125,-0.004 0.195,-0.015 0.07,-0.004 0.152,-0.016 0.238,-0.032 l 0.008,-0.886"
         style="fill:none;stroke:#ed1c24;stroke-width:0.14173201;stroke-linecap:butt;stroke-linejoin:miter;stroke-miterlimit:4;stroke-opacity:1;stroke-dasharray:none"
         id="path4108"
         inkscape:connector-curvature="0" />
      <path
         d="m 168.84873,570.026 c -0.461,0 -0.828,-0.184 -1.094,-0.543 -0.269,-0.36 -0.406,-0.856 -0.406,-1.485 0,-0.625 0.133,-1.121 0.399,-1.484 0.269,-0.359 0.636,-0.539 1.101,-0.539 0.461,0 0.824,0.18 1.094,0.543 0.27,0.363 0.402,0.855 0.402,1.48 0,0.625 -0.132,1.118 -0.402,1.477 -0.27,0.367 -0.633,0.551 -1.094,0.551 m 0,0.73 c 0.75,0 1.34,-0.242 1.77,-0.73 0.426,-0.489 0.64,-1.164 0.64,-2.028 0,-0.859 -0.214,-1.531 -0.64,-2.023 -0.43,-0.488 -1.02,-0.73 -1.77,-0.73 -0.75,0 -1.344,0.242 -1.769,0.73 -0.426,0.492 -0.637,1.164 -0.637,2.023 0,0.864 0.211,1.539 0.637,2.028 0.425,0.488 1.019,0.73 1.769,0.73"
         style="fill:none;stroke:#ed1c24;stroke-width:0.14173201;stroke-linecap:butt;stroke-linejoin:miter;stroke-miterlimit:4;stroke-opacity:1;stroke-dasharray:none"
         id="path4110"
         inkscape:connector-curvature="0" />
      <path
         d="m 172.68473,565.381 0.86289,0 0,7.29297 -0.86289,0 0,-7.29297 z"
         style="fill:none;stroke:#ed1c24;stroke-width:0.14173201;stroke-linecap:butt;stroke-linejoin:miter;stroke-miterlimit:4;stroke-opacity:1;stroke-dasharray:none"
         id="path4112"
         inkscape:connector-curvature="0" />
      <path
         d="m 175.34873,565.381 0.85898,0 0,7.29297 -0.85898,0 0,-7.29297 z"
         style="fill:none;stroke:#ed1c24;stroke-width:0.14173201;stroke-linecap:butt;stroke-linejoin:miter;stroke-miterlimit:4;stroke-opacity:1;stroke-dasharray:none"
         id="path4114"
         inkscape:connector-curvature="0" />
      <path
         d="m 182.50173,568.221 0,-0.422 -3.965,0 c 0.035,-0.594 0.215,-1.047 0.531,-1.359 0.324,-0.309 0.77,-0.465 1.344,-0.465 0.328,0 0.648,0.039 0.961,0.121 0.312,0.082 0.621,0.203 0.925,0.367 l 0,-0.816 c -0.308,-0.133 -0.625,-0.231 -0.949,-0.301 -0.328,-0.066 -0.656,-0.101 -0.992,-0.101 -0.836,0 -1.5,0.242 -1.992,0.73 -0.484,0.488 -0.731,1.148 -0.731,1.977 0,0.859 0.231,1.543 0.696,2.046 0.465,0.504 1.09,0.758 1.879,0.758 0.707,0 1.265,-0.226 1.672,-0.683 0.414,-0.453 0.621,-1.071 0.621,-1.852 m -0.864,0.254 c -0.007,0.469 -0.14,0.848 -0.398,1.129 -0.258,0.281 -0.598,0.422 -1.024,0.422 -0.48,0 -0.867,-0.137 -1.156,-0.41 -0.289,-0.27 -0.453,-0.653 -0.496,-1.149 l 3.074,0.008"
         style="fill:none;stroke:#ed1c24;stroke-width:0.14173201;stroke-linecap:butt;stroke-linejoin:miter;stroke-miterlimit:4;stroke-opacity:1;stroke-dasharray:none"
         id="path4116"
         inkscape:connector-curvature="0" />
      <path
         d="m 186.95873,569.823 c -0.098,0.058 -0.204,0.097 -0.321,0.121 -0.109,0.031 -0.234,0.043 -0.375,0.043 -0.484,0 -0.859,-0.16 -1.125,-0.477 -0.257,-0.316 -0.386,-0.769 -0.386,-1.363 l 0,-2.766 -0.868,0 0,5.25 0.868,0 0,-0.816 c 0.179,0.316 0.418,0.555 0.707,0.707 0.289,0.156 0.644,0.234 1.058,0.234 0.059,0 0.125,-0.004 0.199,-0.015 0.071,-0.004 0.149,-0.016 0.239,-0.032 l 0.004,-0.886"
         style="fill:none;stroke:#ed1c24;stroke-width:0.14173201;stroke-linecap:butt;stroke-linejoin:miter;stroke-miterlimit:4;stroke-opacity:1;stroke-dasharray:none"
         id="path4118"
         inkscape:connector-curvature="0" />
    </g>
    <g
       id="g4877"
       transform="matrix(1.9415209,0,0,1.9415209,-71.636703,-554.26095)">
      <g
         id="g4847"
         transform="matrix(0.125,0,0,-0.125,77.807093,647.20432)">
        <path
           d="m 639.18,397.09 c 35.039,10.121 40.941,-11.871 40.941,-11.871"
           style="fill:none;stroke:#ed1c24;stroke-width:7.12198019;stroke-linecap:butt;stroke-linejoin:miter;stroke-miterlimit:4;stroke-opacity:1;stroke-dasharray:none"
           id="path4849"
           inkscape:connector-curvature="0" />
        <path
           d="m 750.43,397.09 c -35,10.121 -40.942,-11.871 -40.942,-11.871"
           style="fill:none;stroke:#ed1c24;stroke-width:7.12198019;stroke-linecap:butt;stroke-linejoin:miter;stroke-miterlimit:4;stroke-opacity:1;stroke-dasharray:none"
           id="path4851"
           inkscape:connector-curvature="0" />
        <path
           d="m 670.23,336.199 c 24.61,18.75 50.391,-0.398 50.391,-0.398 m -110.93,58.832 85.039,56.68 85.04,-56.68 m -85.04,-85.043 -85.039,85.043 0,113.398 85.039,-56.718 85.04,56.718 0,-113.398 -85.04,-85.043 z"
           style="fill:none;stroke:#ed1c24;stroke-width:8;stroke-linecap:butt;stroke-linejoin:miter;stroke-miterlimit:4;stroke-opacity:1;stroke-dasharray:none"
           id="path4853"
           inkscape:connector-curvature="0" />
      </g>
    </g>
    <g
       id="g5634">
      <g
         transform="translate(-12.401571,-5.3150266)"
         id="g4893">
        <path
           sodipodi:type="arc"
           style="fill:none;stroke:#000000;stroke-width:1"
           id="path3481"
           sodipodi:cx="124.01575"
           sodipodi:cy="1052.3622"
           sodipodi:rx="28.346457"
           sodipodi:ry="28.346457"
           d="m 152.3622,1052.3622 c 0,15.6553 -12.69114,28.3464 -28.34645,28.3464 -15.65532,0 -28.346459,-12.6911 -28.346459,-28.3464 0,-15.6553 12.691139,-28.3465 28.346459,-28.3465 15.65531,0 28.34645,12.6912 28.34645,28.3465 z"
           transform="translate(-271.06299,76.181144)" />
        <g
           id="g3963"
           transform="translate(-253.34646,-207.28343)">
          <path
             sodipodi:nodetypes="ccccccccccccccccccccccccccccccccccccccccccccccccccccccccccccc"
             inkscape:connector-curvature="0"
             id="path3512"
             d="m 283.46457,1477.559 -354.330708,0 0.120901,-14.1732 17.716535,0 0,5.315 10.629922,0 0,-5.315 7.086614,0 -4.4e-5,-10.6299 -7.08657,0 0,-5.315 -10.629966,0 0,5.315 -17.716535,0 1.13e-4,-70.8662 -10.629921,0 0,-92.126 10.629921,0 7e-6,-70.866 17.71653,0 0,5.3149 10.62993,0 0,-5.3149 7.08661,0 0,-10.6299 -7.08661,0 0,-5.315 -10.62993,0 0,5.315 -17.71653,0 -0.120981,-14.1733 354.330712,0 0.121,14.1732 -17.71653,0 0,-5.3149 -10.62993,0 0,5.3149 -7.08661,0 0,10.63 7.08661,0 0,5.3149 10.62993,0 0,-5.3149 17.71653,0 8e-5,70.8661 10.62992,0 0,92.126 -10.62992,0 -1.6e-4,70.8661 -17.71653,0 0,-5.3149 -10.62993,0 0,5.3149 -7.08661,0 0,10.6299 7.08661,0 0,5.315 10.62993,0 0,-5.315 17.71653,0 z"
             style="fill:none;stroke:#000000;stroke-width:1" />
          <path
             sodipodi:nodetypes="ccccc"
             inkscape:connector-curvature="0"
             id="rect3514"
             d="m 53.149606,1208.2676 106.299214,1e-4 0,10.6299 -106.299214,0 z"
             style="fill:none;stroke:#000000;stroke-width:1" />
          <path
             sodipodi:nodetypes="ccccc"
             inkscape:connector-curvature="0"
             id="rect3516"
             d="m 53.149606,1452.7559 106.299214,0 0,10.6299 -106.299214,0 z"
             style="fill:none;stroke:#000000;stroke-width:1" />
        </g>
      </g>
      <g
         transform="translate(-195.05185,86.811022)"
         id="g3936">
        <path
           style="fill:none;stroke:#000000;stroke-width:1"
           d="m -106.12926,963.77951 70.696192,0 -0.08497,145.19059 -70.696192,0 z"
           id="rect3118-5"
           inkscape:connector-curvature="0"
           sodipodi:nodetypes="ccccc" />
        <path
           style="fill:none;stroke:#000000;stroke-width:1"
           d="m -87.229182,1122.5554 c 0,-1.4328 -1.161516,-2.5945 -2.594314,-2.5945 -1.4328,0 -2.594316,1.1617 -2.594316,2.5945 0,1.4331 1.161516,2.5947 2.594316,2.5947 1.432798,0 2.594314,-1.1616 2.594314,-2.5947 z"
           id="path3133-9"
           inkscape:connector-curvature="0" />
        <path
           inkscape:connector-curvature="0"
           id="path4037"
           d="m -49.315797,1122.5554 c 0,-1.4328 -1.161516,-2.5945 -2.594314,-2.5945 -1.4328,0 -2.594316,1.1617 -2.594316,2.5945 0,1.4331 1.161516,2.5947 2.594316,2.5947 1.432798,0 2.594314,-1.1616 2.594314,-2.5947 z"
           style="fill:none;stroke:#000000;stroke-width:1" />
        <path
           inkscape:connector-curvature="0"
           id="path4039"
           d="m -87.229182,950.58098 c 0,-1.4328 -1.161516,-2.5945 -2.594314,-2.5945 -1.4328,0 -2.594316,1.1617 -2.594316,2.5945 0,1.4331 1.161516,2.5947 2.594316,2.5947 1.432798,0 2.594314,-1.1616 2.594314,-2.5947 z"
           style="fill:none;stroke:#000000;stroke-width:1" />
        <path
           style="fill:none;stroke:#000000;stroke-width:1"
           d="m -49.315797,950.58098 c 0,-1.4328 -1.161516,-2.5945 -2.594314,-2.5945 -1.4328,0 -2.594316,1.1617 -2.594316,2.5945 0,1.4331 1.161516,2.5947 2.594316,2.5947 1.432798,0 2.594314,-1.1616 2.594314,-2.5947 z"
           id="path4041"
           inkscape:connector-curvature="0" />
      </g>
      <g
         id="g3951"
         transform="translate(17.716532,86.811022)">
        <path
           sodipodi:nodetypes="ccccc"
           inkscape:connector-curvature="0"
           id="path3953"
           d="m -106.12926,963.77951 70.696192,0 -0.08497,145.19059 -70.696192,0 z"
           style="fill:none;stroke:#000000;stroke-width:1" />
        <path
           inkscape:connector-curvature="0"
           id="path3955"
           d="m -87.229182,1122.5554 c 0,-1.4328 -1.161516,-2.5945 -2.594314,-2.5945 -1.4328,0 -2.594316,1.1617 -2.594316,2.5945 0,1.4331 1.161516,2.5947 2.594316,2.5947 1.432798,0 2.594314,-1.1616 2.594314,-2.5947 z"
           style="fill:none;stroke:#000000;stroke-width:1" />
        <path
           style="fill:none;stroke:#000000;stroke-width:1"
           d="m -49.315797,1122.5554 c 0,-1.4328 -1.161516,-2.5945 -2.594314,-2.5945 -1.4328,0 -2.594316,1.1617 -2.594316,2.5945 0,1.4331 1.161516,2.5947 2.594316,2.5947 1.432798,0 2.594314,-1.1616 2.594314,-2.5947 z"
           id="path3957"
           inkscape:connector-curvature="0" />
        <path
           style="fill:none;stroke:#000000;stroke-width:1"
           d="m -87.229182,950.58098 c 0,-1.4328 -1.161516,-2.5945 -2.594314,-2.5945 -1.4328,0 -2.594316,1.1617 -2.594316,2.5945 0,1.4331 1.161516,2.5947 2.594316,2.5947 1.432798,0 2.594314,-1.1616 2.594314,-2.5947 z"
           id="path3959"
           inkscape:connector-curvature="0" />
        <path
           inkscape:connector-curvature="0"
           id="path3961"
           d="m -49.315797,950.58098 c 0,-1.4328 -1.161516,-2.5945 -2.594314,-2.5945 -1.4328,0 -2.594316,1.1617 -2.594316,2.5945 0,1.4331 1.161516,2.5947 2.594316,2.5947 1.432798,0 2.594314,-1.1616 2.594314,-2.5947 z"
           style="fill:none;stroke:#000000;stroke-width:1" />
      </g>
      <g
         id="g4883"
         transform="matrix(1.9415209,0,0,1.9415209,-479.11702,37.471336)">
        <g
           id="g4885"
           transform="matrix(0.125,0,0,-0.125,77.807093,647.20432)">
          <path
             d="m 639.18,397.09 c 35.039,10.121 40.941,-11.871 40.941,-11.871"
             style="fill:none;stroke:#ed1c24;stroke-width:7.12198019;stroke-linecap:butt;stroke-linejoin:miter;stroke-miterlimit:4;stroke-opacity:1;stroke-dasharray:none"
             id="path4887"
             inkscape:connector-curvature="0" />
          <path
             d="m 750.43,397.09 c -35,10.121 -40.942,-11.871 -40.942,-11.871"
             style="fill:none;stroke:#ed1c24;stroke-width:7.12198019;stroke-linecap:butt;stroke-linejoin:miter;stroke-miterlimit:4;stroke-opacity:1;stroke-dasharray:none"
             id="path4889"
             inkscape:connector-curvature="0" />
          <path
             d="m 670.23,336.199 c 24.61,18.75 50.391,-0.398 50.391,-0.398 m -110.93,58.832 85.039,56.68 85.04,-56.68 m -85.04,-85.043 -85.039,85.043 0,113.398 85.039,-56.718 85.04,56.718 0,-113.398 -85.04,-85.043 z"
             style="fill:none;stroke:#ed1c24;stroke-width:8;stroke-linecap:butt;stroke-linejoin:miter;stroke-miterlimit:4;stroke-opacity:1;stroke-dasharray:none"
             id="path4891"
             inkscape:connector-curvature="0" />
        </g>
      </g>
    </g>
  </g>
</svg>
